<svg width="14" height="14" viewBox="0 0 14 14" fill="none" xmlns="http://www.w3.org/2000/svg">
<g id="input_question_icon">
<g id="&#234;&#183;&#184;&#235;&#163;&#185; 5307">
<path id="&#237;&#131;&#128;&#236;&#155;&#144; 8" d="M7 13C10.3137 13 13 10.3137 13 7C13 3.68629 10.3137 1 7 1C3.68629 1 1 3.68629 1 7C1 10.3137 3.68629 13 7 13Z" stroke="#353C48" stroke-width="0.75" stroke-linecap="round" stroke-linejoin="round"/>
<path id="&#237;&#140;&#168;&#236;&#138;&#164; 38" d="M7.00098 8.45496V7.50195C7.39654 7.50195 7.78322 7.38466 8.11212 7.16489C8.44102 6.94513 8.69736 6.63277 8.84874 6.26732C9.00011 5.90187 9.03972 5.49973 8.96255 5.11177C8.88538 4.72381 8.6949 4.36744 8.41519 4.08774C8.13549 3.80803 7.77912 3.61755 7.39116 3.54038C7.0032 3.46321 6.60106 3.50282 6.23561 3.6542C5.87016 3.80557 5.55781 4.06192 5.33804 4.39082C5.11828 4.71971 5.00098 5.10639 5.00098 5.50195" stroke="#353C48" stroke-width="0.75" stroke-linecap="round" stroke-linejoin="round"/>
<path id="&#237;&#131;&#128;&#236;&#155;&#144; 9" d="M7.00037 10.9402C7.40022 10.9402 7.72437 10.616 7.72437 10.2162C7.72437 9.81633 7.40022 9.49219 7.00037 9.49219C6.60051 9.49219 6.27637 9.81633 6.27637 10.2162C6.27637 10.616 6.60051 10.9402 7.00037 10.9402Z" fill="#353C48"/>
</g>
</g>
</svg>
