<svg width="15" height="14" viewBox="0 0 15 14" fill="none" xmlns="http://www.w3.org/2000/svg">
<path d="M7.5 13C10.8137 13 13.5 10.3137 13.5 7C13.5 3.68629 10.8137 1 7.5 1C4.18629 1 1.5 3.68629 1.5 7C1.5 10.3137 4.18629 13 7.5 13Z" stroke="white" stroke-width="0.75" stroke-linecap="round" stroke-linejoin="round"/>
<path d="M7.50098 8.45496V7.50195C7.89654 7.50195 8.28322 7.38466 8.61212 7.16489C8.94102 6.94513 9.19736 6.63277 9.34874 6.26732C9.50011 5.90187 9.53972 5.49973 9.46255 5.11177C9.38538 4.72381 9.1949 4.36744 8.91519 4.08774C8.63549 3.80803 8.27912 3.61755 7.89116 3.54038C7.5032 3.46321 7.10106 3.50282 6.73561 3.6542C6.37016 3.80557 6.05781 4.06192 5.83804 4.39082C5.61828 4.71971 5.50098 5.10639 5.50098 5.50195" stroke="white" stroke-width="0.75" stroke-linecap="round" stroke-linejoin="round"/>
<path d="M7.50037 10.9402C7.90022 10.9402 8.22437 10.616 8.22437 10.2162C8.22437 9.81633 7.90022 9.49219 7.50037 9.49219C7.10051 9.49219 6.77637 9.81633 6.77637 10.2162C6.77637 10.616 7.10051 10.9402 7.50037 10.9402Z" fill="white"/>
</svg>
