<svg width="19" height="19" viewBox="0 0 19 19" fill="none" xmlns="http://www.w3.org/2000/svg">
<g id="list-arrow_icon">
<path id="arrow_open_icon" d="M15.9285 5.64259H3.07136C2.84186 5.64259 2.61653 5.70402 2.41879 5.82051C2.22104 5.937 2.05808 6.10429 1.94682 6.30503C1.83556 6.50576 1.78006 6.73262 1.78609 6.96205C1.79211 7.19148 1.85944 7.41511 1.98108 7.60973L8.40965 13.146C8.52496 13.3321 8.68585 13.4856 8.8771 13.5921C9.06835 13.6986 9.28362 13.7544 9.50251 13.7544C9.72139 13.7544 9.93666 13.6986 10.1279 13.5921C10.3192 13.4856 10.4801 13.3321 10.5954 13.146L17.0239 7.60973C17.1458 7.41474 17.2132 7.19063 17.219 6.96076C17.2248 6.73089 17.1688 6.50367 17.057 6.30277C16.9451 6.10188 16.7814 5.93466 16.5829 5.81854C16.3844 5.70243 16.1584 5.64167 15.9285 5.64259Z" fill="#2A72E5"/>
</g>
</svg>
