<svg width="25" height="24" viewBox="0 0 25 24" fill="none" xmlns="http://www.w3.org/2000/svg">
<g id="Symbol">
<g id="Base">
<path id="Vector" d="M12.5 24C19.1274 24 24.5 18.6274 24.5 12C24.5 5.37258 19.1274 0 12.5 0C5.87258 0 0.5 5.37258 0.5 12C0.5 18.6274 5.87258 24 12.5 24Z" fill="white"/>
<path id="Vector_2" d="M12.5 23.5C18.8513 23.5 24 18.3513 24 12C24 5.64873 18.8513 0.5 12.5 0.5C6.14873 0.5 1 5.64873 1 12C1 18.3513 6.14873 23.5 12.5 23.5Z" stroke="#E8EDF2"/>
</g>
<g id="TON">
<g id="tokamak1">
<g id="&#234;&#183;&#184;&#235;&#163;&#185; 331">
<path id="&#237;&#140;&#168;&#236;&#138;&#164; 201" d="M4.40893 10.5374C4.35693 10.7014 4.29393 10.9224 4.25293 11.0894C4.2813 10.9736 4.3342 10.8654 4.40804 10.7719C4.48188 10.6784 4.57494 10.6018 4.68093 10.5474C4.88949 10.2792 5.15677 10.0623 5.46223 9.91361C5.76769 9.76486 6.10319 9.68815 6.44293 9.68936V9.68337C5.17693 9.31937 4.78493 9.73536 4.67393 9.93136C4.57014 10.1262 4.48154 10.3288 4.40893 10.5374Z" fill="#007AFF"/>
<path id="&#237;&#140;&#168;&#236;&#138;&#164; 202" d="M5.72067 8.5906L5.53467 8.7686C5.74867 8.5926 6.10167 8.63361 6.64567 8.89761C6.76345 8.68676 6.91285 8.4952 7.08867 8.32961C6.83067 8.14161 6.56967 7.9776 6.40367 8.0546C6.16315 8.21625 5.93486 8.3954 5.72067 8.5906Z" fill="#007AFF"/>
<path id="&#237;&#140;&#168;&#236;&#138;&#164; 203" d="M8.32266 7.12489C8.12966 7.19589 7.87166 7.29089 7.68066 7.36889C7.78055 7.47529 7.87027 7.59079 7.94866 7.71389C8.23788 7.55751 8.53878 7.42378 8.84866 7.31389C8.79666 7.09789 8.78366 6.98989 8.84866 6.96289C8.69066 7.01089 8.47866 7.06989 8.32266 7.12489Z" fill="#007AFF"/>
<path id="&#237;&#140;&#168;&#236;&#138;&#164; 204" d="M11.4606 6.53462C11.1666 6.55862 10.7746 6.59462 10.4816 6.62962C10.3286 6.66762 10.2606 6.72262 10.1816 6.95362C10.5814 6.87779 10.985 6.82405 11.3906 6.79263C11.4504 6.70861 11.529 6.63978 11.6202 6.59167C11.7114 6.54356 11.8126 6.51751 11.9156 6.51562L11.4566 6.53563" fill="#007AFF"/>
<path id="&#237;&#140;&#168;&#236;&#138;&#164; 205" d="M14.727 6.71129C14.452 6.66929 14.085 6.61729 13.809 6.58429C13.5328 6.55169 13.254 6.61794 13.022 6.77129C13.4433 6.79301 13.8633 6.83708 14.28 6.90329C14.5912 6.76927 14.9373 6.73911 15.267 6.81729C15.105 6.78529 14.889 6.73829 14.727 6.71129Z" fill="#007AFF"/>
<path id="&#237;&#140;&#168;&#236;&#138;&#164; 206" d="M17.6746 7.64391C17.4746 7.54891 17.1976 7.42491 16.9916 7.34391C16.5841 7.17534 16.134 7.13862 15.7046 7.23891C16.0407 7.34261 16.3695 7.46889 16.6886 7.6169C17.2522 7.54808 17.822 7.68131 18.2966 7.99291C18.1116 7.88591 17.8656 7.74191 17.6756 7.64791" fill="#007AFF"/>
<path id="&#237;&#140;&#168;&#236;&#138;&#164; 207" d="M20.5998 10.7061C20.4618 10.3122 20.2717 9.93859 20.0348 9.59508L19.8888 9.39508C19.6386 9.03778 19.3082 8.74404 18.9241 8.53739C18.54 8.33074 18.1128 8.21693 17.6768 8.20508C17.887 8.36486 18.0765 8.5503 18.2408 8.75708C19.0018 8.90844 19.6834 9.32767 20.1617 9.93867C20.6401 10.5497 20.8835 11.3119 20.8478 12.0871C20.8356 11.6172 20.7519 11.1508 20.5998 10.7061Z" fill="#007AFF"/>
<path id="&#237;&#140;&#168;&#236;&#138;&#164; 208" d="M18.4739 16.2605C18.7584 16.0764 19.0279 15.8701 19.2799 15.6435C19.3749 15.5515 19.5019 15.4295 19.5939 15.3325C21.4479 13.1835 20.6059 10.0825 18.6139 9.51953C18.6352 9.61815 18.6466 9.71865 18.6479 9.81953C18.6479 9.83753 18.6479 9.85553 18.6479 9.87253C18.6459 9.97111 18.6342 10.0693 18.6129 10.1655C20.7429 11.1275 20.5339 14.9655 18.2739 16.3855L18.4739 16.2605Z" fill="#007AFF"/>
<path id="&#237;&#140;&#168;&#236;&#138;&#164; 209" d="M15.6878 17.391C15.9648 17.319 16.3338 17.217 16.6088 17.132C19.3358 16.107 19.7708 11.922 18.2398 10.916C18.0758 11.1177 17.8866 11.2975 17.6768 11.451C18.9718 12.879 17.6448 16.913 15.2148 17.492L15.6888 17.392" fill="#007AFF"/>
<path id="&#237;&#140;&#168;&#236;&#138;&#164; 210" d="M12.516 17.7266C12.773 17.7266 13.116 17.7206 13.373 17.7106C15.638 17.4766 17.25 13.3176 16.689 12.0156C16.3695 12.1548 16.0407 12.2717 15.705 12.3656C15.7 14.0286 13.46 17.7476 11.854 17.7046C12.054 17.7116 12.317 17.7266 12.516 17.7266Z" fill="#007AFF"/>
<path id="&#237;&#140;&#168;&#236;&#138;&#164; 211" d="M9.22978 17.2964C9.48278 17.3574 9.82078 17.4354 10.0748 17.4874C11.0198 17.5564 13.3998 14.3483 14.2748 12.6523C13.8562 12.7082 13.4349 12.7416 13.0128 12.7523C12.3268 13.4183 10.5128 15.5124 10.1608 15.9254C9.24478 16.9894 8.90479 17.1914 8.77979 17.1734L9.22478 17.3004" fill="#007AFF"/>
<path id="&#237;&#140;&#168;&#236;&#138;&#164; 212" d="M6.46968 16.0944C6.74413 16.2796 7.03041 16.4466 7.32668 16.5944L7.35068 16.6064C8.43667 15.0537 9.80844 13.7219 11.3927 12.6824C10.987 12.6377 10.5841 12.571 10.1857 12.4824C8.10868 13.2824 5.98568 15.7144 6.35268 16.0134L6.46968 16.0944Z" fill="#007AFF"/>
<path id="&#237;&#140;&#168;&#236;&#138;&#164; 213" d="M4.9656 14.6402C5.0656 14.7722 5.1966 14.9482 5.3016 15.0742C4.8336 14.3612 6.8016 12.5152 8.8476 12.0842C8.53729 11.9651 8.23643 11.8227 7.9476 11.6582C6.0696 11.8582 4.2816 13.1932 4.6476 14.1142C4.7376 14.2752 4.8586 14.4902 4.9616 14.6402" fill="#007AFF"/>
<path id="&#237;&#140;&#168;&#236;&#138;&#164; 214" d="M4.15283 12.0292C4.15283 12.0592 4.15283 12.0891 4.15283 12.1191C4.16083 12.2751 4.17383 12.4832 4.19083 12.6382C4.14083 11.6252 5.67783 10.9712 7.09083 11.0172C6.91463 10.8464 6.76498 10.6502 6.64683 10.4351C6.27239 10.3497 5.88408 10.3448 5.50758 10.4206C5.13109 10.4965 4.77499 10.6514 4.46283 10.8752C4.26665 11.229 4.16053 11.6256 4.15383 12.0302" fill="#007AFF"/>
</g>
</g>
</g>
</g>
</svg>
