<svg width="40" height="36" viewBox="0 0 40 36" fill="none" xmlns="http://www.w3.org/2000/svg">
<path id="Vector" d="M36.8 6.86364H4.8C4.37565 6.86364 3.96869 6.69602 3.66863 6.39767C3.36857 6.09932 3.2 5.69466 3.2 5.27273C3.2 4.85079 3.36857 4.44614 3.66863 4.14778C3.96869 3.84943 4.37565 3.68182 4.8 3.68182H32C32.4243 3.68182 32.8313 3.5142 33.1314 3.21585C33.4314 2.9175 33.6 2.51284 33.6 2.09091C33.6 1.66897 33.4314 1.26432 33.1314 0.965967C32.8313 0.667613 32.4243 0.5 32 0.5H4.8C3.52696 0.5 2.30606 1.00284 1.40589 1.8979C0.505713 2.79296 0 4.00692 0 5.27273V30.7273C0 31.9931 0.505713 33.207 1.40589 34.1021C2.30606 34.9972 3.52696 35.5 4.8 35.5H36.8C37.6487 35.5 38.4626 35.1648 39.0627 34.5681C39.6629 33.9714 40 33.1621 40 32.3182V10.0455C40 9.20158 39.6629 8.39228 39.0627 7.79557C38.4626 7.19886 37.6487 6.86364 36.8 6.86364ZM36.8 32.3182H4.8C4.37565 32.3182 3.96869 32.1506 3.66863 31.8522C3.36857 31.5539 3.2 31.1492 3.2 30.7273V9.77301C3.71375 9.95409 4.25493 10.0462 4.8 10.0455H36.8V32.3182ZM27.2 20.3864C27.2 19.9144 27.3408 19.453 27.6045 19.0606C27.8682 18.6681 28.243 18.3623 28.6816 18.1817C29.1201 18.001 29.6027 17.9538 30.0682 18.0459C30.5338 18.1379 30.9614 18.3652 31.2971 18.6989C31.6327 19.0327 31.8613 19.4579 31.9539 19.9208C32.0465 20.3837 31.999 20.8635 31.8173 21.2996C31.6357 21.7356 31.328 22.1083 30.9334 22.3706C30.5387 22.6328 30.0747 22.7727 29.6 22.7727C28.9635 22.7727 28.353 22.5213 27.9029 22.0738C27.4529 21.6262 27.2 21.0193 27.2 20.3864Z" fill="#1C1C1C"/>
</svg>
